# xmcd CD database file
#
# Track frame offsets:
#	150
#	39944
#	68270
#	139071
#	182106
#	220142
#
# Disc length: 3647 seconds
#
# Revision: 1
# Processed by: cddbd v1.5.2PL0 Copyright (c) Steve Scherf et al.
# Submitted via: CDex 1.70beta2
#
DISCID=4b0e3d06
DTITLE=Steve Lacy - At The New Jazz Meeting Baden-Baden 2002
DYEAR=2002
DGENRE=Jazz
TTITLE0=dw 1.2 remix 6.8
TTITLE1=dw 1.2 remix 7.4
TTITLE2=dw 1.2 remix 10.2
TTITLE3=dw 1.2 remix 7.7
TTITLE4=dw 1.2 remix karlsruhe 3.3
TTITLE5=dw 1.2 remix 6.1
EXTD=YEAR: 2002
EXTT0=
EXTT1=
EXTT2=
EXTT3=
EXTT4=
EXTT5=
PLAYORDER=
